<?xml version="1.0" encoding="utf-8"?>
<!-- Generator: Adobe Illustrator 19.2.1, SVG Export Plug-In . SVG Version: 6.00 Build 0)  -->
<svg version="1.1" id="Layer_1" xmlns="http://www.w3.org/2000/svg" xmlns:xlink="http://www.w3.org/1999/xlink" x="0px" y="0px"
	 viewBox="0 0 127.3 127.3" style="enable-background:new 0 0 127.3 127.3;" xml:space="preserve">
<style type="text/css">
	.st0{fill:#F91212;}
</style>
<g id="XMLID_26_">
	<path id="XMLID_73_" class="st0" d="M0.4,80.4v13.8h9.9v30.5H115V94.3h11.9V80.4H0.4z M122.1,89.5H115h-4.8v4.8V120H15.1V94.3v-4.8
		h-4.8H5.2v-4.2h116.9V89.5z"/>
	<path id="XMLID_76_" class="st0" d="M65.4,67.6c0-4.9-4-8.9-8.9-8.9H36v-4.7h9.2V42.5H22.5v11.4h9.1v4.7h-8.3c-4.9,0-8.9,4-8.9,8.9
		v9.6h51.1V67.6z"/>
	<path id="XMLID_93_" class="st0" d="M73.3,78.7h38.1c1.2,0,2.1-0.9,2.1-2.1V59.1c0-6-3.9-11.1-9.4-12.9c2.4-2.8,3.7-6.5,3.7-10.3
		c0-8.8-7-15.9-15.5-15.9c-8.6,0-15.5,7.1-15.5,15.9c0,3.9,1.3,7.5,3.7,10.3c-5.4,1.8-9.4,6.9-9.4,12.9v17.5
		C71.2,77.8,72.1,78.7,73.3,78.7z M75.4,59.1c0-5.1,4.2-9.3,9.3-9.3h0.7c0.9,0,1.8-0.6,2-1.5c0.3-0.9-0.1-1.9-0.9-2.4
		c-3.4-2.1-5.5-5.9-5.5-10c0-6.4,5.1-11.7,11.3-11.7c6.2,0,11.3,5.2,11.3,11.7c0,4.1-2.1,7.9-5.5,10c-0.8,0.5-1.2,1.5-0.9,2.4
		c0.3,0.9,1.1,1.5,2,1.5h0.7c5.2,0,9.3,4.2,9.3,9.3v15.4H75.4V59.1z"/>
</g>
</svg>
