<?xml version="1.0" encoding="utf-8"?>
<!-- Generator: Adobe Illustrator 19.2.1, SVG Export Plug-In . SVG Version: 6.00 Build 0)  -->
<svg version="1.1" id="Layer_1" xmlns="http://www.w3.org/2000/svg" xmlns:xlink="http://www.w3.org/1999/xlink" x="0px" y="0px"
	 viewBox="0 0 127.3 127.3" style="enable-background:new 0 0 127.3 127.3;" xml:space="preserve">
<style type="text/css">
	.st0{fill:#F91212;}
</style>
<g id="XMLID_33_">
	<path id="XMLID_45_" class="st0" d="M124.5,118.3H120v-15V85.3V67.2v-16h4.7c1.1,0,2.1-0.9,2.1-2.1V22.9c0-1.1-0.9-2.1-2.1-2.1
		H97.3V8.5c0-1.1-0.9-2.1-2.1-2.1H32c-1.1,0-2.1,0.9-2.1,2.1v12.4H2.6c-1.1,0-2.1,0.9-2.1,2.1v26.2c0,1.1,0.9,2.1,2.1,2.1h4.7v16
		v18.1v18.1v15H2.8c-1.7,0-3.1,1.4-3.1,3.1s1.4,3.1,3.1,3.1h121.7c1.7,0,3.1-1.4,3.1-3.1S126.2,118.3,124.5,118.3z M25.3,118.3H11.4
		v-12.9h13.9V118.3z M25.3,101.3H11.4V87.4h13.9V101.3z M25.3,83.2H11.4V69.3h13.9V83.2z M25.3,65.1H11.4V51.2h13.9V65.1z M9.3,47.1
		H4.6V25H30v22.1h-2.6H9.3z M43.4,118.3H29.5v-12.9h13.9V118.3z M43.4,101.3H29.5V87.4h13.9V101.3z M43.4,83.2H29.5V69.3h13.9V83.2z
		 M43.4,65.1H29.5V51.2H32h11.4V65.1z M61.6,118.3h-14v-15V85.3V67.2v-16h14V118.3z M79.7,67.2v18.1v18.1v15h-14V51.2h14V67.2z
		 M45.5,47.1H34.1V22.9V10.6h59v12.4v24.2H81.8H45.5z M97.8,118.3H83.9v-12.9h13.9V118.3z M97.8,101.3H83.9V87.4h13.9V101.3z
		 M97.8,83.2H83.9V69.3h13.9V83.2z M97.8,65.1H83.9V51.2h11.4h2.6V65.1z M115.9,118.3H102v-12.9h13.9V118.3z M115.9,101.3H102V87.4
		h13.9V101.3z M115.9,83.2H102V69.3h13.9V83.2z M115.9,65.1H102V51.2h13.9V65.1z M99.9,47.1h-2.6V25h25.3v22.1h-4.7H99.9z"/>
</g>
</svg>
