<?xml version="1.0" encoding="utf-8"?>
<!-- Generator: Adobe Illustrator 19.2.1, SVG Export Plug-In . SVG Version: 6.00 Build 0)  -->
<svg version="1.1" id="Layer_1" xmlns="http://www.w3.org/2000/svg" xmlns:xlink="http://www.w3.org/1999/xlink" x="0px" y="0px"
	 viewBox="0 0 127.3 127.3" style="enable-background:new 0 0 127.3 127.3;" xml:space="preserve">
<style type="text/css">
	.st0{fill:#F91212;}
</style>
<g id="XMLID_28_">
	<path id="XMLID_14_" class="st0" d="M118.8,82.2C118.8,82.2,118.8,82.2,118.8,82.2C114,78.9,101,71.9,91.5,67
		c0.1-0.9-0.3-1.7-1.1-2.1L86.7,63c4.6-6,7.4-13.7,7.4-22.3c0-0.3,0-0.6,0-1c1.1-3.9,2.3-9.8,2-17.8C95.6,6.5,82.9,2.8,74.8,0.1
		c-8.1-2.7-41.2,8.2-45.7-0.2c0,0-2.4,11,4.5,18.8c0,0-0.9,11.2,1.4,19c-0.1,1-0.1,2.1-0.1,3.1c0,8.3,2.7,16,7.1,21.9l-4.5,2.2
		c-0.7,0.3-1.1,1.1-1.1,1.8c-9.5,5-22.9,12.2-27.8,15.6C0,88,1.8,111.7,2,114c0.1,0.9,0.8,1.6,1.7,1.8l0.5,0.1l0.2,9.7
		c0,1,0.9,1.9,1.9,1.9h19.3c0,0,0,0,0,0c0.3,0.1,0.5,0.2,0.8,0.2h0l37.3,0l37.3,0c0,0,0,0,0,0c0.3,0,0.6-0.1,0.8-0.2c0,0,0,0,0,0
		H121c1,0,1.9-0.8,1.9-1.9l0.2-9.7l0.5-0.1c0.9-0.2,1.6-0.9,1.7-1.8C125.5,111.7,127.3,88,118.8,82.2z M86.9,67.7
		c-1.1,2-4.2,6.2-12.2,11.8l-4.5-5.6c5.2-1.2,9.8-3.9,13.6-7.7L86.9,67.7z M38.6,40.8c0-1.1,0.1-2.2,0.2-3.3
		c1.8-4.1,4.4-10.2,5.3-15c0.2-0.3,0.4-0.6,0.6-0.9c3.1,1.7,22.6,12,41.4,2.8c0.3,0.6,0.6,1.2,0.9,1.8c0.4,3.5,1.3,10.6,3.3,15.7
		c-0.5,16-11.9,28.9-25.8,28.9C50.2,70.7,38.6,57.3,38.6,40.8z M44.6,65.8c3.6,3.7,7.9,6.4,12.7,7.7l-4.6,5.9
		C45,73.9,42,69.7,40.9,67.7L44.6,65.8z M24.3,123.7H8.1L8,116.6l16.3,2.9V123.7z M119.3,116.9l-0.1,6.8H103v-4.2l16.3-2.9V116.9z
		 M121.3,112.1l-18.3,3.3v-10.8c0-1.1-0.9-2.1-2.1-2.1s-2.1,0.9-2.1,2.1v13.3v5.7l-35.3,0l-35.3,0v-5.7v-13.3c0-1.1-0.9-2.1-2.1-2.1
		c-1.1,0-2.1,0.9-2.1,2.1v10.8L6,112.1c-0.4-6.4-0.3-23,4.8-26.4c4.6-3.2,17.6-10.2,27-15.1c1.8,3,5.7,7.6,14.2,13.5
		c0.4,0.2,0.8,0.4,1.2,0.4c0.6,0,1.2-0.3,1.6-0.8l7.1-9.1c0.8,0.1,1.7,0.1,2.5,0.1c0.3,0,0.7,0,1,0l7.2,9.1c0.4,0.5,1,0.8,1.6,0.8
		c0.4,0,0.8-0.1,1.1-0.4c8.5-5.7,12.5-10.3,14.4-13.3c9.3,4.9,22.1,11.8,26.6,14.9C121.5,89,121.7,105.7,121.3,112.1z"/>
</g>
</svg>
