<?xml version="1.0" encoding="utf-8"?>
<!-- Generator: Adobe Illustrator 19.1.0, SVG Export Plug-In . SVG Version: 6.00 Build 0)  -->
<svg version="1.1" xmlns="http://www.w3.org/2000/svg" xmlns:xlink="http://www.w3.org/1999/xlink" x="0px" y="0px"
	 viewBox="0 0 800.7 800.7" style="enable-background:new 0 0 800.7 800.7;" xml:space="preserve">
<style type="text/css">
	.st0{display:none;}
	.st1{fill:#151515;}
	.st2{fill:#2D2D2D;}
	.st3{fill:#FFFFFF;}
	.st4{fill:#F3F3F3;}
	.st5{fill:#ED282F;}
	.st6{fill:none;stroke:#151515;stroke-miterlimit:10;}
	.st7{fill:#64CBEE;}
	.st8{fill:#507CBD;}
	.st9{fill:#F06360;}
	.st10{filter:url(#Adobe_OpacityMaskFilter);}
	.st11{fill:url(#SVGID_2_);}
	.st12{fill:#DDDDDD;}
	.st13{fill:#222222;}
	.st14{fill:none;stroke:#ED3342;stroke-width:4.0211;stroke-miterlimit:10;}
	.st15{clip-path:url(#SVGID_30_);fill:url(#SVGID_31_);}
	.st16{fill:#2B323A;}
	.st17{fill:#F37735;}
	.st18{clip-path:url(#SVGID_33_);fill:url(#SVGID_34_);}
	.st19{clip-path:url(#SVGID_36_);fill:url(#SVGID_37_);}
	.st20{clip-path:url(#SVGID_39_);fill:url(#SVGID_40_);}
	.st21{fill:#6B6B6B;}
</style>
<g id="Grid-guias" class="st0">
</g>
<g id="Fotter">
	<path class="st3" d="M731.8,342.2c-24.3-139.1-134.2-249-273.3-273.3L389.6,0l-74.8,74.8c-117,30.8-209.2,123-240,240L0,389.6
		l68.9,68.9c24.3,139.1,134.2,249,273.3,273.3l68.9,68.9l74.8-74.8c116.9-30.8,209.2-123,240-240l74.8-74.8L731.8,342.2z
		 M710.9,321.3L660,270.5l12.6-38.8C689.7,259.1,702.8,289.2,710.9,321.3z M670.2,227.7h-52.8l-138-138
		C559.1,110,626.9,152.7,670.2,227.7z M390.1,18.9l208.8,208.8h-79.7l-42.8,143.1l-56.9-143.1H181.3L390.1,18.9z M290.2,99.4
		L99.4,290.2C131.8,202,202,131.8,290.2,99.4z M89.8,479.4l50.4,50.4l-12.7,38.4C110.7,541,97.8,511.1,89.8,479.4z M128.9,562.7
		h51.9l140.5,140.5C240.6,682.7,172.1,644.7,128.9,562.7z M510.5,701.3l190.8-190.8C668.9,598.7,598.7,668.9,510.5,701.3z
		 M410.6,777.9L199.2,562.7h62.5l64-186H188.2l-43.5,135.5l-125.8-124l151.4-150.5l-26.5,104.9l197.5-5.4l71.5,225.4h148.6
		l93.9-283.5l126.2,126.9L410.6,777.9z"/>
</g>
<g id="Body">
</g>
<g id="Capa_4">
</g>
</svg>
